<svg height="512" viewBox="0 0 64 64" width="512" xmlns="http://www.w3.org/2000/svg"><g id="Fill_Outline" data-name="Fill Outline"><g id="Color"><path d="m7 9h50a4 4 0 0 1 4 4v32a4 4 0 0 1 -4 4h-49a5 5 0 0 1 -5-5v-31a4 4 0 0 1 4-4z" fill="#e9f1f2"/><path d="m61 37v8a4 4 0 0 1 -4 4h-49a5 5 0 0 1 -5-5v-31a4 4 0 0 1 4-4h15v8a19.994 19.994 0 0 0 20 20z" fill="#d0d8da"/><path d="m11 57h42a2 2 0 0 1 2 2v2a0 0 0 0 1 0 0h-46a0 0 0 0 1 0 0v-2a2 2 0 0 1 2-2z" fill="#e9f1f2"/><path d="m55 59v2h-46v-2a2.006 2.006 0 0 1 2-2h1.18a2.968 2.968 0 0 0 2.82 2z" fill="#d0d8da"/><path d="m42 49h-20a10.823 10.823 0 0 1 -6.347 6.939l-2.653 1.061h38l-2.653-1.061a10.823 10.823 0 0 1 -6.347-6.939z" fill="#d0d8da"/><path d="m42 49h-20a10.823 10.823 0 0 1 -6.347 6.939l-2.653 1.061z" fill="#93999a"/><path d="m28 7h6a0 0 0 0 1 0 0v3a3 3 0 0 1 -3 3 3 3 0 0 1 -3-3v-3a0 0 0 0 1 0 0z" fill="#ffea00"/><path d="m32 3h2a0 0 0 0 1 0 0v4a0 0 0 0 1 0 0h-6a0 0 0 0 1 0 0 4 4 0 0 1 4-4z" fill="#93999a"/><path d="m44.757 16.32-4.757.68-5-4h-8l-6 1-2.374 6.33a1.719 1.719 0 0 0 3.083 1.488l2.291-3.818h3v5h8v-4.4l4 2.4 6.279-.785a1.965 1.965 0 1 0 -.522-3.895z" fill="#ade8f4"/><path d="m46.89 17.62-5.11 1.02a4.7 4.7 0 0 1 -3.34-.57l-2.32-1.4a4.694 4.694 0 0 0 -2.42-.67 4.668 4.668 0 0 1 -3.843-2.016c.049 0 .094.016.143.016a2.978 2.978 0 0 0 2.221-1h-5.221l-6 1-2.37 6.33a1.718 1.718 0 0 0 3.08 1.49l2.29-3.82h3v5h8v-4.4l4 2.4 6.28-.78a1.967 1.967 0 0 0 1.61-2.6z" fill="#48cae4"/><path d="m35 23h-8l-1 6-5.172 1-.828 4 10-1 3-6 4 2 1 6 4 1-1-9z" fill="#48cae4"/><path d="m34.942 25.464a2.631 2.631 0 0 0 1.384 1.384l.844.362a3.813 3.813 0 0 1 2.22 2.74 3.793 3.793 0 0 0 2.24 2.75l.37 3.3-4-1-1-6-4-2-3 6-10 1 .83-4 5.17-1 1-6h8l-.2.8a2.63 2.63 0 0 0 .138 1.665z" fill="#00b4d8"/><path d="m38 35h3a4 4 0 0 1 4 4 0 0 0 0 1 0 0h-7a0 0 0 0 1 0 0v-4a0 0 0 0 1 0 0z" fill="#ffea00"/><path d="m22.36 20.74-.65 1.08a1.719 1.719 0 0 1 -3.19-.88 1.641 1.641 0 0 1 .11-.61l2.37-6.33 1-.17v3.17a19.2 19.2 0 0 0 .36 3.74z" fill="#00b4d8"/><path d="m30 33-10 1 .83-4 5.17-1a19.949 19.949 0 0 0 4 4z" fill="#0096c7"/><path d="m45 39h-7v-2.4a20.248 20.248 0 0 0 4 .4h2.46a3.989 3.989 0 0 1 .54 2z" fill="#ffd000"/><path d="m15.5 31.5h3a4 4 0 0 1 4 4 0 0 0 0 1 0 0h-7a0 0 0 0 1 0 0v-4a0 0 0 0 1 0 0z" fill="#ffb700" transform="matrix(0 1 -1 0 52.5 14.5)"/><path d="m30 9a3 3 0 0 0 3 3 .974.974 0 0 0 .24-.02 2.929 2.929 0 0 1 -2.24 1.02 3 3 0 0 1 -3-3v-3h6v1h-3a1 1 0 0 0 -1 1z" fill="#ffd000"/><path d="m34 6v1h-6a4 4 0 0 1 2.05-3.49 2.982 2.982 0 0 0 2.95 2.49z" fill="#656b76"/><circle cx="22" cy="43" fill="#48cae4" r="2"/><path d="m23.82 43.82a2 2 0 1 1 -2.64-2.64 1.891 1.891 0 0 0 -.18.82 2.006 2.006 0 0 0 2 2 1.891 1.891 0 0 0 .82-.18z" fill="#00b4d8"/><path d="m53 34h4v4h-4z" fill="#ff7373"/><path d="m53 37h4v1h-4z" fill="#ef5350"/><path d="m53 30h4v4h-4z" fill="#ef5350"/><path d="m53 26h4v4h-4z" fill="#e53935"/><path d="m53 22h4v4h-4z" fill="#c62828"/></g><g id="Outline_copy" fill="#323232" data-name="Outline copy"><path d="m61 34a1 1 0 0 0 -1 1v10a3 3 0 0 1 -3 3h-49a4 4 0 0 1 -4-4v-31a3 3 0 0 1 3-3h17a1 1 0 0 0 0-2h-17a5.006 5.006 0 0 0 -5 5v31a6.006 6.006 0 0 0 6 6h12.545a9.756 9.756 0 0 1 -5.263 5.01l-2.474.99h-1.808a3 3 0 0 0 -3 3v2a1 1 0 0 0 1 1h16a1 1 0 0 0 0-2h-15v-1a1 1 0 0 1 1-1h42a1 1 0 0 1 1 1v1h-25a1 1 0 0 0 0 2h26a1 1 0 0 0 1-1v-2a3 3 0 0 0 -3-3h-1.808l-2.474-.99a9.756 9.756 0 0 1 -5.263-5.01h13.545a5.006 5.006 0 0 0 5-5v-10a1 1 0 0 0 -1-1zm-14.768 22h-28.464a11.743 11.743 0 0 0 4.952-6h18.56a11.743 11.743 0 0 0 4.952 6z"/><path d="m57 8h-19a1 1 0 0 0 0 2h19a3 3 0 0 1 3 3v18a1 1 0 0 0 2 0v-18a5.006 5.006 0 0 0 -5-5z"/><path d="m20.063 13.649-2.374 6.33a2.721 2.721 0 0 0 1.687 3.534 2.734 2.734 0 0 0 3.19-1.18l2-3.333h1.434a1 1 0 0 0 2 0v-1a1 1 0 0 0 -1-1h-3a1 1 0 0 0 -.857.485l-2.291 3.815a.72.72 0 0 1 -.843.311.719.719 0 0 1 -.447-.934l2.171-5.789 5.35-.888h7.566l4.726 3.781a1 1 0 0 0 .767.209l4.757-.68a.959.959 0 0 1 .768.227.949.949 0 0 1 .333.729.966.966 0 0 1 -.845.957l-5.936.742-3.7-2.222a1 1 0 0 0 -1.519.857v3.4h-7a1 1 0 0 0 -.986.835l-.886 5.315-4.4.85h-3.728a1 1 0 0 0 -1 1v7a1 1 0 0 0 1 1 5 5 0 0 0 4.639-3.159l8.461-.846a1 1 0 0 0 .795-.548l2.552-5.105 2.653 1.325.916 5.5a1 1 0 0 0 .984.833h3a3.006 3.006 0 0 1 2.829 2h-5.829a1 1 0 0 0 0 2h7a1 1 0 0 0 1-1 5 5 0 0 0 -3.176-4.644l-.83-7.466a1 1 0 0 0 -.439-.722l-5.555-3.703v-2.1l2.485 1.491a.992.992 0 0 0 .639.135l6.279-.784a2.965 2.965 0 1 0 -.787-5.877l-4.329.618-4.662-3.73a1 1 0 0 0 -.625-.218h-.556a3.959 3.959 0 0 0 .556-2v-7a1 1 0 0 0 -1-1h-2a5.006 5.006 0 0 0 -5 5v3a3.959 3.959 0 0 0 .556 2h-.556a.9.9 0 0 0 -.164.014l-6 1a1 1 0 0 0 -.773.635zm-.063 19.351a3.006 3.006 0 0 1 -2 2.829v-4.829h2zm20.772 1h-1.925l-.861-5.165a1 1 0 0 0 -.539-.73l-4-2a1 1 0 0 0 -1.342.448l-2.752 5.507-7.353.74v-2l4.189-.81a1 1 0 0 0 .8-.817l.858-5.173h6.853l5.361 3.574zm-8.772-30h1v2h-3.829a3.006 3.006 0 0 1 2.829-2zm-3 6v-2h4v2a2 2 0 0 1 -4 0z"/><path d="m22 40a3 3 0 0 0 -2.816 2h-6.184a1 1 0 0 0 0 2h6.184a2.982 2.982 0 0 0 5.632 0h28.184a1 1 0 0 0 0-2h-28.184a3 3 0 0 0 -2.816-2zm0 4a1 1 0 1 1 1-1 1 1 0 0 1 -1 1z"/><path d="m57 39a1 1 0 0 0 1-1v-16a1 1 0 0 0 -1-1h-4a1 1 0 0 0 -1 1v16a1 1 0 0 0 1 1zm-3-8h2v2h-2zm2-2h-2v-2h2zm0 8h-2v-2h2zm-2-14h2v2h-2z"/><path d="m7 21h4a1 1 0 0 0 0-2h-4a1 1 0 0 0 0 2z"/><path d="m7 25h4a1 1 0 0 0 0-2h-4a1 1 0 0 0 0 2z"/><path d="m12 28a1 1 0 0 0 -1-1h-4a1 1 0 0 0 0 2h4a1 1 0 0 0 1-1z"/><path d="m11 32a1 1 0 0 0 -1-1h-3a1 1 0 0 0 0 2h3a1 1 0 0 0 1-1z"/><path d="m7 35a1 1 0 0 0 0 2h2a1 1 0 0 0 0-2z"/></g></g></svg>